HIERARCHY
ROOT reference
{
  OFFSET 0 0 0
  CHANNELS 6 Xposition Yposition Zposition Zrotation Xrotation Yrotation
  JOINT Hips
  {
    OFFSET 40.8535 86.6696 97.9072
    CHANNELS 6 Xposition Yposition Zposition Zrotation Xrotation Yrotation
    JOINT Spine
    {
      OFFSET 0 7.85829 0
      CHANNELS 6 Xposition Yposition Zposition Zrotation Xrotation Yrotation
      JOINT Spine1
      {
        OFFSET 0 25.1384 0
        CHANNELS 6 Xposition Yposition Zposition Zrotation Xrotation Yrotation
        JOINT Neck
        {
          OFFSET 0 25.0351 2.27592
          CHANNELS 6 Xposition Yposition Zposition Zrotation Xrotation Yrotation
          JOINT Head
          {
            OFFSET 0 13.4166 -1.91665
            CHANNELS 6 Xposition Yposition Zposition Zrotation Xrotation Yrotation
            End Site
            {
              OFFSET 0 23.9582 0
            }
          }
        }
        JOINT LeftShoulder
        {
          OFFSET 3.81534 24.0346 -0.234509
          CHANNELS 6 Xposition Yposition Zposition Zrotation Xrotation Yrotation
          JOINT LeftArm
          {
            OFFSET 8.62273 0 0
            CHANNELS 6 Xposition Yposition Zposition Zrotation Xrotation Yrotation
            JOINT LeftForeArm
            {
              OFFSET 31.7064 0 0
              CHANNELS 6 Xposition Yposition Zposition Zrotation Xrotation Yrotation
              JOINT LeftHand
              {
                OFFSET 23.7731 0 0
                CHANNELS 6 Xposition Yposition Zposition Zrotation Xrotation Yrotation
                End Site
                {
                  OFFSET 14.3749 0 0
                }
              }
            }
          }
        }
        JOINT RightShoulder
        {
          OFFSET -3.83608 24.0346 -0.234509
          CHANNELS 6 Xposition Yposition Zposition Zrotation Xrotation Yrotation
          JOINT RightArm
          {
            OFFSET -8.62273 0 0
            CHANNELS 6 Xposition Yposition Zposition Zrotation Xrotation Yrotation
            JOINT RightForeArm
            {
              OFFSET -31.7064 0 0
              CHANNELS 6 Xposition Yposition Zposition Zrotation Xrotation Yrotation
              JOINT RightHand
              {
                OFFSET -23.7731 0 0
                CHANNELS 6 Xposition Yposition Zposition Zrotation Xrotation Yrotation
                End Site
                {
                  OFFSET -14.3749 0 0
                }
              }
            }
          }
        }
      }
    }
    JOINT LeftUpLeg
    {
      OFFSET 9.58328 0 0
      CHANNELS 6 Xposition Yposition Zposition Zrotation Xrotation Yrotation
      JOINT LeftLeg
      {
        OFFSET 0 -36.4535 0
        CHANNELS 6 Xposition Yposition Zposition Zrotation Xrotation Yrotation
        JOINT LeftFoot
        {
          OFFSET 0 -41.4659 0
          CHANNELS 6 Xposition Yposition Zposition Zrotation Xrotation Yrotation
          JOINT LeftToeBase
          {
            OFFSET 0 -6.22913 14.3749
            CHANNELS 6 Xposition Yposition Zposition Zrotation Xrotation Yrotation
            End Site
            {
              OFFSET 0 0 3.83331
            }
          }
        }
      }
    }
    JOINT RightUpLeg
    {
      OFFSET -9.58328 0 0
      CHANNELS 6 Xposition Yposition Zposition Zrotation Xrotation Yrotation
      JOINT RightLeg
      {
        OFFSET 0 -36.4535 0
        CHANNELS 6 Xposition Yposition Zposition Zrotation Xrotation Yrotation
        JOINT RightFoot
        {
          OFFSET 0 -41.4659 0
          CHANNELS 6 Xposition Yposition Zposition Zrotation Xrotation Yrotation
          JOINT RightToeBase
          {
            OFFSET 0 -6.22913 14.3749
            CHANNELS 6 Xposition Yposition Zposition Zrotation Xrotation Yrotation
            End Site
            {
              OFFSET 0 0 3.83331
            }
          }
        }
      }
    }
  }
}
MOTION
Frames:	7
Frame Time:	0.004
0 0 0 0 0 -0 31.5867 79.7398 -102.92 -1.31283 -8.48177 81.6084 -1.42109e-014 7.85829 3.55271e-015 -8.63211 -7.20519 -2.611 0 25.1384 3.55271e-015 -0.470728 7.58214 -2.03535 0 25.0351 2.27592 2.35369 30.0347 -25.3365 7.10543e-015 13.4166 -1.91665 19.4221 -8.68682 -22.0353 3.81534 24.0346 -0.234509 -16.8197 24.0168 6.97688 8.62273 0 0 -27.6896 35.2575 -23.7171 31.7064 0 1.42109e-014 0.783505 -12.0626 -14.9197 23.7731 0 1.42109e-014 13.6218 -12.4698 -4.34797 -3.83608 24.0346 -0.234509 16.2612 31.5166 -2.94762 -8.62273 0 0 14.6796 43.1461 39.2614 -31.7064 0 -1.42109e-014 -13.9468 -13.4492 40.8526 -23.7731 1.42109e-014 0 2.21696 -8.35299 -1.66252 9.58328 1.42109e-014 0 27.0008 -2.17438 -2.36493 0 -36.4535 0 -9.41699 19.7628 1.54991 0 -41.4659 5.32907e-015 -8.80318 -13.236 2.95772 -2.84217e-014 -6.22913 14.3749 -1.98785e-016 -4.96962e-017 -1.59028e-015 -9.58328 -1.42109e-014 3.55271e-015 -21.2375 -1.97337 6.29094 -7.10543e-015 -36.4535 0 5.06243 7.65501 -2.23185 0 -41.4659 -1.77636e-015 -2.23923 1.67677 -13.5462 7.10543e-015 -6.22913 14.3749 6.36111e-015 1.59028e-015 3.18055e-015 
0 0 0 0 0 -0 31.5813 79.6533 -102.618 -1.38411 -8.40243 81.6082 -1.42109e-014 7.85829 0 -8.64299 -7.27758 -2.64198 1.42109e-014 25.1384 0 -0.407921 7.64867 -2.06408 0 25.0351 2.27592 2.34362 29.9889 -25.2988 2.13163e-014 13.4166 -1.91665 19.3331 -8.72824 -22.0096 3.81534 24.0346 -0.234509 -16.8977 24.1077 7.04871 8.62273 2.84217e-014 0 -27.6832 35.1494 -23.7376 31.7064 0 0 0.806331 -12.1354 -14.8241 23.7731 0 0 13.6875 -12.5359 -4.28919 -3.83608 24.0346 -0.234509 16.2353 31.45 -2.95551 -8.62273 0 2.84217e-014 14.7098 43.1089 39.1631 -31.7064 0 7.10543e-015 -14.0304 -13.4572 40.9168 -23.7731 -2.13163e-014 0 2.37498 -8.32307 -1.65942 9.58328 2.84217e-014 -3.55271e-015 27.1208 -2.30731 -2.29353 0 -36.4535 -3.55271e-015 -9.36158 19.9146 1.44676 -2.84217e-014 -41.4659 5.32907e-015 -8.99283 -13.2537 3.03059 2.84217e-014 -6.22913 14.3749 1.98785e-016 8.69683e-016 -1.59028e-015 -9.58328 -1.42109e-014 -3.55271e-015 -21.429 -2.10279 6.28554 0 -36.4535 -3.55271e-015 5.04055 7.71486 -2.11001 1.42109e-014 -41.4659 0 -2.41524 1.86582 -13.4412 0 -6.22913 14.3749 -3.18055e-015 0 -0 
0 0 0 0 0 -0 31.5934 79.5833 -102.329 -1.42911 -8.31668 81.629 0 7.85829 0 -8.63947 -7.34774 -2.66994 0 25.1384 0 -0.350208 7.69222 -2.09066 1.42109e-014 25.0351 2.27592 2.28468 30.0517 -25.2931 0 13.4166 -1.91665 19.2984 -8.82266 -22.0017 3.81534 24.0346 -0.234509 -16.9558 24.0211 6.99869 8.62273 0 -1.42109e-014 -27.7062 35.3607 -23.5722 31.7064 0 0 0.870622 -12.3283 -14.6869 23.7731 0 1.42109e-014 13.5347 -12.7193 -4.3208 -3.83608 24.0346 -0.234509 16.1419 31.4632 -2.97363 -8.62273 -2.84217e-014 0 14.7473 43.0373 39.1455 -31.7064 -7.10543e-015 0 -14.0619 -13.4394 40.9657 -23.7731 -7.10543e-015 -1.42109e-014 2.30841 -8.28549 -1.66796 9.58328 1.42109e-014 0 27.2342 -2.39537 -2.41383 -2.84217e-014 -36.4535 7.10543e-015 -9.45066 19.9848 1.73715 2.84217e-014 -41.4659 5.32907e-015 -9.07995 -13.211 3.02238 -2.84217e-014 -6.22913 14.3749 -3.97569e-016 -1.36664e-015 3.97569e-016 -9.58328 0 0 -21.6111 -2.12476 6.48577 0 -36.4535 0 5.00909 7.60615 -2.23403 0 -41.4659 1.77636e-015 -2.40596 2.09589 -13.4048 0 -6.22913 14.3749 3.18055e-015 0 -6.36111e-015 
0 0 0 0 0 -0 31.6111 79.5045 -102.018 -1.40256 -8.28131 81.6491 0 7.85829 3.55271e-015 -8.56474 -7.34385 -2.67886 0 25.1384 3.55271e-015 -0.394643 7.78526 -2.10138 0 25.0351 2.27592 2.35119 30.0121 -25.2809 0 13.4166 -1.91665 19.2045 -8.88542 -21.99 3.81534 24.0346 -0.234509 -16.9492 23.9954 7.00294 8.62273 -2.84217e-014 0 -27.765 35.3046 -23.4828 31.7064 1.42109e-014 -2.84217e-014 0.849892 -12.3565 -14.5797 23.7731 1.42109e-014 0 13.5904 -12.747 -4.26959 -3.83608 24.0346 -0.234509 16.217 31.4028 -3.00441 -8.62273 0 0 14.6434 43.1157 39.0912 -31.7064 0 2.13163e-014 -14.2513 -13.5872 40.9704 -23.7731 7.10543e-015 0 2.56793 -8.36485 -1.5359 9.58328 0 3.55271e-015 27.417 -2.37849 -2.49973 0 -36.4535 3.55271e-015 -9.44966 20.0557 1.63725 -2.84217e-014 -41.4659 -1.77636e-015 -9.30214 -13.2091 3.09536 0 -6.22913 14.3749 5.86222e-033 -8.44835e-016 3.97569e-016 -9.58328 0 0 -21.7242 -2.12572 6.42086 -1.42109e-014 -36.4535 3.55271e-015 4.94803 7.65539 -2.04494 0 -41.4659 -3.55271e-015 -2.27093 2.19807 -13.3994 0 -6.22913 14.3749 -9.54166e-015 0 3.18055e-015 
0 0 0 0 0 -0 31.6317 79.4239 -101.728 -1.3647 -8.22042 81.6979 -1.42109e-014 7.85829 0 -8.53347 -7.3311 -2.69945 0 25.1384 1.06581e-014 -0.349661 7.84309 -2.12782 0 25.0351 2.27592 2.25476 30.0761 -25.247 1.42109e-014 13.4166 -1.91665 19.2852 -9.00215 -21.9296 3.81534 24.0346 -0.234509 -16.9964 23.9965 6.96276 8.62273 0 0 -27.8122 35.3248 -23.3745 31.7064 0 -2.84217e-014 0.886826 -12.3976 -14.4538 23.7731 0 0 13.4141 -12.7819 -4.30402 -3.83608 24.0346 -0.234509 16.1362 31.4623 -3.03811 -8.62273 0 0 14.6525 43.0618 39.1441 -31.7064 0 0 -14.4395 -13.6694 40.8845 -23.7731 7.10543e-015 1.42109e-014 2.74237 -8.39102 -1.48112 9.58328 0 0 27.4771 -2.3565 -2.47642 0 -36.4535 0 -9.31218 20.0761 1.77615 -2.84217e-014 -41.4659 0 -9.44379 -13.1944 2.9319 2.84217e-014 -6.22913 14.3749 3.97569e-016 -2.48481e-017 3.97569e-016 -9.58328 -2.84217e-014 3.55271e-015 -21.8972 -2.07642 6.53582 0 -36.4535 0 4.97783 7.6447 -2.08525 7.10543e-015 -41.4659 0 -2.49274 2.40813 -13.2759 0 -6.22913 14.3749 -6.36111e-015 0 -3.18055e-015 
0 0 0 0 0 -0 31.6492 79.3357 -101.404 -1.34277 -8.167 81.7385 0 7.85829 -7.10543e-015 -8.48123 -7.34357 -2.73433 0 25.1384 0 -0.374438 7.96777 -2.16305 1.42109e-014 25.0351 2.27592 2.35474 30.0304 -25.2332 1.42109e-014 13.4166 -1.91665 19.1307 -9.14002 -21.9122 3.81534 24.0346 -0.234509 -17.0044 24.0089 7.02617 8.62273 0 1.42109e-014 -27.8081 35.3572 -23.3732 31.7064 -1.42109e-014 0 0.918778 -12.4128 -14.3624 23.7731 -1.42109e-014 0 13.5159 -12.7922 -4.25715 -3.83608 24.0346 -0.234509 16.1644 31.3365 -3.01607 -8.62273 -1.42109e-014 0 14.8213 42.9008 38.8808 -31.7064 -7.10543e-015 7.10543e-015 -14.3534 -13.5331 41.1036 -23.7731 2.13163e-014 -1.42109e-014 2.5901 -8.25356 -1.57657 9.58328 0 -7.10543e-015 27.6268 -2.34626 -2.47515 0 -36.4535 0 -9.26078 20.1195 1.77798 0 -41.4659 1.77636e-015 -9.5914 -13.1708 2.87839 0 -6.22913 14.3749 1.03451e-033 -1.49089e-016 3.97569e-016 -9.58328 0 0 -22.0162 -2.03573 6.71206 0 -36.4535 3.55271e-015 4.90685 7.62992 -2.07809 0 -41.4659 1.77636e-015 -2.40493 2.43352 -13.2155 0 -6.22913 14.3749 -3.18055e-015 -4.77083e-015 3.18055e-015 
0 0 0 0 0 -0 31.6695 79.256 -101.096 -1.30345 -8.11185 81.7555 0 7.85829 -3.55271e-015 -8.40898 -7.31341 -2.73629 0 25.1384 3.55271e-015 -0.415649 8.01421 -2.16881 -1.42109e-014 25.0351 2.27592 2.45982 30.0399 -25.2571 1.42109e-014 13.4166 -1.91665 19.0236 -9.26694 -21.9248 3.81534 24.0346 -0.234509 -17.0002 24.1286 7.08842 8.62273 -2.84217e-014 0 -27.7564 35.3483 -23.4725 31.7064 0 1.42109e-014 0.988312 -12.4726 -14.2157 23.7731 1.42109e-014 -1.42109e-014 13.4061 -12.8368 -4.22494 -3.83608 24.0346 -0.234509 16.227 31.3437 -3.08107 -8.62273 -1.42109e-014 1.42109e-014 14.8273 42.7926 38.8044 -31.7064 7.10543e-015 7.10543e-015 -14.4449 -13.5397 41.1701 -23.7731 0 0 2.80554 -8.21977 -1.60238 9.58328 0 -3.55271e-015 27.7648 -2.27409 -2.53264 0 -36.4535 -1.06581e-014 -9.23694 20.0941 1.80007 2.84217e-014 -41.4659 -3.55271e-015 -9.77362 -13.1478 2.88507 0 -6.22913 14.3749 -4.13804e-033 -5.96354e-016 -3.97569e-016 -9.58328 0 -3.55271e-015 -22.1476 -2.03866 6.70785 7.10543e-015 -36.4535 3.55271e-015 4.86968 7.74028 -1.9752 -7.10543e-015 -41.4659 1.77636e-015 -2.35439 2.51891 -13.078 7.10543e-015 -6.22913 14.3749 6.36111e-015 3.18055e-015 -3.18055e-015 
